<?xml version="1.0" encoding="UTF-8"?>
<svg xmlns="http://www.w3.org/2000/svg" width="69" height="43" viewBox="0 0 69 43">
  <g transform="translate(-261 -233)">
    <g transform="translate(285 233)" fill="none" stroke="#fff" stroke-linecap="round" stroke-linejoin="round" stroke-width="2">
      <rect width="21" height="14" stroke="none"></rect>
      <rect x="1" y="1" width="19" height="12" fill="none"></rect>
    </g>
    <line x2="20.766" transform="translate(285.367 265.347)" fill="none" stroke="#fff" stroke-width="2"></line>
    <path d="M5384.5,1848.431V1836" transform="translate(-5088.75 -1583.083)" fill="none" stroke="#fff" stroke-width="2"></path>
    <line x2="12" transform="translate(289.5 249.5)" fill="none" stroke="#fff" stroke-linecap="round" stroke-width="1"></line>
    <path d="M5385.75,1843.5v-3.583" transform="translate(-5090.25 -1594)" fill="none" stroke="#fff" stroke-width="1"></path>
    <g transform="translate(309 259)" fill="none" stroke="#fff" stroke-linecap="round" stroke-linejoin="round" stroke-width="2">
      <rect width="21" height="14" stroke="none"></rect>
      <rect x="1" y="1" width="19" height="12" fill="none"></rect>
    </g>
    <line x2="12" transform="translate(313.5 275.5)" fill="none" stroke="#fff" stroke-linecap="round" stroke-width="1"></line>
    <path d="M5385.75,1843.5v-3.583" transform="translate(-5066.25 -1568)" fill="none" stroke="#fff" stroke-width="1"></path>
    <g transform="translate(261 258)" fill="none" stroke="#fff" stroke-linecap="round" stroke-linejoin="round" stroke-width="2">
      <rect width="21" height="14" stroke="none"></rect>
      <rect x="1" y="1" width="19" height="12" fill="none"></rect>
    </g>
    <line x2="12" transform="translate(265.5 274.5)" fill="none" stroke="#fff" stroke-linecap="round" stroke-width="1"></line>
    <path d="M5385.75,1843.5v-3.583" transform="translate(-5114.25 -1569)" fill="none" stroke="#fff" stroke-width="1"></path>
  </g>
</svg>
